<svg width="105" height="19" viewBox="0 0 105 19" fill="none" xmlns="http://www.w3.org/2000/svg">
<g clip-path="url(#clip0_3_10338)">
<path d="M8.38565 14.7263C9.25447 14.7263 9.95879 13.9376 9.95879 12.9647C9.95879 11.9918 9.25447 11.2031 8.38565 11.2031C7.51682 11.2031 6.8125 11.9918 6.8125 12.9647C6.8125 13.9376 7.51682 14.7263 8.38565 14.7263Z" fill="#5C36EE"/>
<path d="M16.9826 5.73314C16.9826 2.56322 14.7284 0 11.8976 0C10.5943 0 9.40407 0.528725 8.49891 1.40587C7.59375 0.528725 6.40573 0 5.10239 0C2.2716 0 0.0174069 2.56322 0.0174069 5.73314C0.0174069 5.8842 0 6.01821 0 6.16927V17.1409C0 18.1667 0.728913 19 1.66236 19C2.5958 19 3.32254 18.1643 3.32254 17.1409V17.1214H3.33995V5.94024L3.35735 5.59913C3.52707 4.66838 4.22117 3.98615 5.08716 3.98615C5.877 3.98615 6.53629 4.53924 6.78216 5.31893V7.68966H6.79957C6.90183 8.60092 7.59593 9.32213 8.44452 9.32213C8.4641 9.32213 8.48368 9.32213 8.50326 9.3197C8.52285 9.3197 8.54243 9.32213 8.56201 9.32213C9.4106 9.32213 10.1047 8.60092 10.207 7.68966H10.2244V5.31893C10.4702 4.53924 11.1274 3.98615 11.9194 3.98615C12.7832 3.98615 13.4795 4.66838 13.6492 5.59913L13.6666 5.94024V17.119H13.684V17.1385C13.684 18.1643 14.4303 18.9976 15.3442 18.9976C16.258 18.9976 17.0065 18.1618 17.0065 17.1385V6.16927C17.0065 6.01821 16.9891 5.8842 16.9891 5.73314H16.9826Z" fill="#5C36EE"/>
</g>
<g clip-path="url(#clip1_3_10338)">
<path d="M25 16.2086C25 16.2086 25 16.7551 25 13.6398C25.5316 13.8941 26.1844 14.0103 26.9818 14.0103C29.4314 14.0103 30.5754 12.393 30.5754 10.3298V2.51953H33.2705V10.3266C33.2705 13.8502 30.9219 16.419 26.9818 16.419C26.2887 16.419 25.6124 16.3405 25 16.1866V16.2055V16.2086Z" fill="white"/>
<path d="M38.4039 6.57031V11.595C38.4039 13.0553 39.2417 14.1639 40.8333 14.1639C42.4248 14.1639 43.4073 12.9359 43.4073 11.4757V6.57031H45.877V16.1894H43.6495L43.4847 14.8861C42.445 15.8597 41.4826 16.3276 40.0762 16.3276C37.667 16.3276 35.9106 14.5941 35.9106 11.617V6.57031H38.4005H38.4039Z" fill="white"/>
<path d="M55.1147 9.12011C54.4014 8.47633 53.5838 8.26278 52.6248 8.26278C51.4404 8.26278 50.7877 8.61451 50.7877 9.21747C50.7877 9.82043 51.3799 10.191 52.6652 10.2695C54.5629 10.3857 56.9721 10.794 56.9721 13.3471C56.9721 15.0398 55.5219 16.5001 52.6417 16.5001C51.0501 16.5001 49.4553 16.2457 47.9849 14.7854L49.2096 13.0927C49.923 13.8527 51.5582 14.418 52.682 14.4368C53.6208 14.4557 54.499 13.9878 54.499 13.2875C54.499 12.6248 53.927 12.3516 52.497 12.2762C50.5993 12.1412 48.3314 11.4786 48.3314 9.29598C48.3314 7.11338 50.7406 6.29688 52.5777 6.29688C54.1491 6.29688 55.3334 6.58893 56.4976 7.56247L55.108 9.12011H55.1147Z" fill="white"/>
<path d="M63.5592 16.2833C61.3755 16.2833 59.3735 15.1747 59.3735 12.7786V8.6301H58.7207V6.58569H59.3735V2.5H61.8634V6.58883H62.8021V8.63324H61.8432V12.7817C61.8432 13.6956 62.7819 14.1447 63.5592 14.1447V16.2865V16.2833Z" fill="white"/>
<path d="M71.9995 16.1675V11.0267C71.9995 9.76106 71.3064 8.61167 69.937 8.61167C68.5675 8.61167 67.7936 9.76106 67.7936 11.0267V16.1675H65.3037V6.55155H67.8138L67.7936 7.71979C68.3252 6.74626 69.4894 6.39453 70.4484 6.39453C71.653 6.39453 72.8575 6.86245 73.4296 8.18457C74.3279 6.82163 75.4921 6.43222 76.7977 6.43222C79.6577 6.43222 81.0641 8.10606 81.0641 10.989V16.1675H78.5742V10.989C78.5742 9.72338 78.0224 8.65249 76.6765 8.65249C75.3306 8.65249 74.4928 9.76106 74.4928 11.0267V16.1675H72.0029H71.9995Z" fill="white"/>
<path d="M86.5068 2.63477V4.87389H84.0371V2.63477H86.5068ZM84.0573 6.52889V16.1668H86.5472V6.52889H84.0573Z" fill="white"/>
<path d="M96.664 16.1663V11.1416C96.664 9.68129 95.8262 8.57272 94.2347 8.57272C92.6431 8.57272 91.6606 9.60592 91.6606 11.0662V16.1663H89.1909V6.55029H91.5799V7.65886C92.5994 6.70417 93.6223 6.41211 94.8874 6.41211C97.2562 6.41211 99.1539 8.1048 99.1539 11.1227V16.1663H96.664Z" fill="white"/>
<path d="M105.861 16.2833C103.678 16.2833 101.676 15.1747 101.676 12.7786V8.6301H101.023V6.58569H101.676V2.5H104.166V6.58883H105.104V8.63324H104.145V12.7817C104.145 13.6956 105.084 14.1447 105.861 14.1447V16.2865V16.2833Z" fill="white"/>
</g>
<defs>
<clipPath id="clip0_3_10338">
<rect width="17" height="19" fill="white"/>
</clipPath>
<clipPath id="clip1_3_10338">
<rect width="80" height="14" fill="white" transform="translate(25 2.5)"/>
</clipPath>
</defs>
</svg>
